PathFileType	4	(X/Y/Z)	RBDS021\RBDS021runT35.trc
DataRate	CameraRate	NumFrames	NumMarkers	Units	OrigDataRate	OrigDataStartFrame	OrigNumFrames
150.000000	150.000000	4	33	mm	150.000000	3375	4500
Frame#	Time	L.ASIS			L.Heel.Bottom			L.Heel.Lateral			L.Heel.Top			L.Iliac.Crest			L.MT1			L.MT5			L.PSIS			L.Shank.Bottom.Lateral			L.Shank.Bottom.Medial			L.Shank.Top.Lateral			L.Shank.Top.Medial			L.Thigh.Bottom.Lateral			L.Thigh.Bottom.Medial			L.Thigh.Top.Lateral			L.Thigh.Top.Medial			R.ASIS			R.ASY			R.Heel.Bottom			R.Heel.Lateral			R.Heel.Top			R.Iliac.Crest			R.MT1			R.MT5			R.PSIS			R.Shank.Bottom.Lateral			R.Shank.Bottom.Medial			R.Shank.Top.Lateral			R.Shank.Top.Medial			R.Thigh.Bottom.Lateral			R.Thigh.Bottom.Medial			R.Thigh.Top.Lateral			R.Thigh.Top.Medial			
		X1	Y1	Z1	X2	Y2	Z2	X3	Y3	Z3	X4	Y4	Z4	X5	Y5	Z5	X6	Y6	Z6	X7	Y7	Z7	X8	Y8	Z8	X9	Y9	Z9	X10	Y10	Z10	X11	Y11	Z11	X12	Y12	Z12	X13	Y13	Z13	X14	Y14	Z14	X15	Y15	Z15	X16	Y16	Z16	X17	Y17	Z17	X18	Y18	Z18	X19	Y19	Z19	X20	Y20	Z20	X21	Y21	Z21	X22	Y22	Z22	X23	Y23	Z23	X24	Y24	Z24	X25	Y25	Z25	X26	Y26	Z26	X27	Y27	Z27	X28	Y28	Z28	X29	Y29	Z29	X30	Y30	Z30	X31	Y31	Z31	X32	Y32	Z32	X33	Y33	Z33	

3376	22.5	2107.107989965667	950.2695856864952	876.004688762332	1562.339634969472	521.2236438184215	1000.490521480425	1563.434042803914	510.252585973054	943.1338276331679	1603.103961611041	506.5889780531781	981.3625615209349	2066.629000758901	1038.418795460281	832.6440635042616	1529.873846484275	307.3986419401926	954.3112533706233	1504.666642408445	381.8471891526381	870.0092248169998	1932.870873267693	997.5497115937168	934.475865509037	1670.452603119856	462.7937536418536	884.7478368106446	1676.918867429125	494.2844855117208	930.1904430636798	1745.893916876629	476.2561785765823	863.90375555813	1753.122770532201	507.7493963791596	906.7360548744766	1998.39813384362	579.7115591800059	810.505881743778	1940.667902033659	591.3185246964842	850.8706792018114	2002.782702081121	687.8652336054854	789.4172134310149	1945.853349531453	698.9147810374891	826.4089433966121	2099.239457316611	954.5067417358598	1090.191248215707	2232.159778891666	75.17384595032063	1024.811186969439	2069.142052770776	33.79249536753848	940.5377793392154	2077.601142891784	46.16919953782965	994.1824163522313	2077.18776796159	77.10916452594151	949.6904067217367	2044.060358160506	1018.972828520566	1140.66056793499	2280.029451704625	42.5060037912754	983.0430016442292	2212.998065452868	30.63382650577799	1078.864107798989	1925.107738755817	993.9432840197238	1016.87434788822	2111.566827966196	162.1124055220465	1041.976846774172	2093.35542101264	179.1046460585015	996.988979519808	2108.380478167625	241.4676503364422	1071.072917812957	2087.540904385433	254.5517339898123	1023.963150895294	2112.171671682549	609.3053151375576	1142.891470216285	2057.841806253405	584.921912455774	1100.891073455138	2057.253089183531	703.6458002827854	1154.377241993487	2006.359704488915	680.7140353509559	1113.611567131481	
3377	22.50666666666667	2104.826647627734	944.1745083865422	876.8490947660663	1579.273588443377	526.8180599453018	998.3631104398941	1581.76338314554	516.0146725796002	941.0642810557988	1620.184570186829	511.3707229287454	980.5302269070539	2064.991529325973	1030.382124561193	831.9007169929988	1543.355430282331	313.5311303612965	951.2593674899503	1522.235897209832	388.722052789022	866.3671381429079	1929.696046363251	991.3578885438976	934.8152897378274	1688.110720283483	465.4452788357253	883.8638052627803	1695.281542099562	496.9455472964968	929.1236521433012	1763.820310985832	476.3222615388537	863.0722159856798	1771.902502521974	507.742474925672	905.8053585580969	2008.844406993696	573.7322933010709	810.6158173641207	1950.264942265748	582.8776397695146	850.2171255353105	2009.251508670178	682.0692051229911	789.952853935905	1951.781259914943	690.7967291240411	826.5566505191672	2096.955651319829	950.2433617802366	1090.295794026461	2209.46875839984	74.20171497166118	1021.561205547132	2045.859287084885	31.92881279172844	939.001798753839	2054.583975475163	46.06316160484837	992.3475937613138	2054.510060399788	75.57467806516219	946.7164306878233	2043.120083573719	1012.619311148519	1141.201505325923	2257.042041339454	40.13860987771842	980.6424683930856	2189.805386564947	31.77501506879533	1077.386387520942	1922.3055992526	989.5627952117607	1017.011537987637	2093.903874382699	161.4468026716624	1039.894936861161	2075.682457440427	179.569275443661	995.3042486667589	2094.804319958897	240.7274857447376	1069.536940792693	2073.544855302504	254.9313238003558	1022.972721188414	2107.555903155547	605.2140445206805	1143.090373569241	2053.514079410179	581.3808555877325	1100.390538130282	2052.883675599649	699.7311946096358	1154.873476855175	2002.322234786928	677.2561308844435	1113.416549023062	
3378	22.51333333333334	2102.295395471778	938.026059010087	877.8218948316782	1595.982988248285	531.1911327939009	995.1948103922342	1600.09731732712	520.1524526932244	938.1264126913385	1637.183252046396	515.1653114190218	978.8629186709242	2062.852087947606	1022.251000179233	831.1374831702576	1558.530330360265	318.1195229237986	948.7391468757113	1541.003809738354	393.066070628875	862.7644808000842	1926.311467834103	985.7331230785738	935.0681862210828	1706.307705992288	467.3239397585747	882.7688474375004	1713.963059096746	498.8664253499072	927.8710120856134	1782.271623614799	476.0016740267955	862.2402428669503	1790.952332003814	507.4071652893924	904.8852677984976	2019.917731642308	568.6948053374037	810.8756217242012	1960.401122328022	575.17546288756	849.4321215526334	2016.139614094172	677.0443762027533	790.6741879080535	1958.05285418801	683.2628118051231	826.6282374952767	2094.29060816234	946.3249765867497	1090.608028520995	2186.662313656165	73.78310013415386	1019.192435602082	2022.47314738608	31.02317208360417	938.245487605499	2031.528251749475	46.47996618851002	991.3442431701196	2031.641194358487	74.89177798857362	944.8662939466245	2041.717902528902	1006.438540657845	1141.713799490063	2233.861976104216	38.74562388463384	978.8844064867636	2166.721611650463	32.97733220310288	1076.363635918977	1919.259117182385	985.6365876306451	1016.874781402692	2076.100758884102	161.4947852568883	1038.788325261265	2057.861473744783	180.6374091724812	994.5946753843178	2081.044608853653	240.5915587189967	1068.778698877737	2059.32499601966	255.8280961125764	1022.77493574223	2102.620247035538	601.582284813966	1143.421714606333	2048.793341873497	578.3085332842238	1100.104182511611	2048.33570465764	696.332070940487	1155.471667769635	1998.014436779784	674.3284658229531	1113.43826142611	
3379	22.52	2099.589652630586	931.9698978736537	878.8795836352061	1612.324780205929	534.2742632891777	991.0565714887525	1618.204311746183	522.6167436315041	934.3863688847782	1653.948637004686	517.9253961264233	976.3667257857263	2060.109438399643	1014.293205112452	830.3865083306171	1575.225032396723	321.026702015672	946.8035886847744	1560.662537872617	394.813346009106	859.3049716055777	1922.837488974547	980.8292640154726	935.2305365139687	1724.834643978686	468.4317702072345	881.4620720968745	1732.741365144012	500.057621149306	926.4441218718011	1801.075252150646	475.3761530684849	861.4276397206033	1810.077035550976	506.8371199800182	904.0009241616325	2031.554399119189	564.7699445359118	811.2928732492235	1971.107074847678	568.384666719994	848.6408216188585	2023.364734332402	672.9295898695161	791.5728944098782	1964.649404449336	676.4505599666406	826.7023180347015	2091.349436899226	942.8303343262826	1091.180926621769	2163.806682637585	73.70842627838459	1017.758645881645	1999.097994855299	30.98005576650933	938.1525878235727	2008.492203223015	47.26850872792935	991.0772381053449	2008.694852181609	74.95929059832305	944.0654337365982	2039.809650119616	1000.628558626711	1142.191056509693	2210.584284828715	38.10412166764603	977.8219148218542	2143.727545721036	34.03122088709634	1075.825716385914	1916.092793018464	982.2244815428825	1016.472313293257	2058.104531826308	162.0763665887981	1038.597897899164	2039.877877987513	182.1272005901214	994.7832549113914	2066.955460161097	240.877570007668	1068.754712068444	2044.805949928116	257.0724258753326	1023.289338888268	2097.343117681663	598.4101644906119	1143.919988762517	2043.591936727517	575.7127335765946	1100.162283958229	2043.661364734942	693.4889895048398	1156.205278083072	1993.43333873934	671.983039677197	1113.783019768405	
